<?xml version="1.0" encoding="UTF-8" standalone="no"?>
<!-- Created with Inkscape (http://www.inkscape.org/) -->

<svg
   width="300.76562"
   height="203.05731"
   viewBox="0 0 300.76563 203.05732"
   version="1.1"
   id="svg1"
   inkscape:version="1.4 (e7c3feb100, 2024-10-09)"
   sodipodi:docname="penguin.svg"
   inkscape:export-filename="../imgs/penguin.png"
   inkscape:export-xdpi="600"
   inkscape:export-ydpi="600"
   xml:space="preserve"
   xmlns:inkscape="http://www.inkscape.org/namespaces/inkscape"
   xmlns:sodipodi="http://sodipodi.sourceforge.net/DTD/sodipodi-0.dtd"
   xmlns="http://www.w3.org/2000/svg"
   xmlns:svg="http://www.w3.org/2000/svg"
   xmlns:rdf="http://www.w3.org/1999/02/22-rdf-syntax-ns#"
   xmlns:cc="http://creativecommons.org/ns#"><sodipodi:namedview
     id="namedview1"
     pagecolor="#ffffff"
     bordercolor="#000000"
     borderopacity="0.25"
     inkscape:showpageshadow="2"
     inkscape:pageopacity="0.0"
     inkscape:pagecheckerboard="0"
     inkscape:deskcolor="#d1d1d1"
     inkscape:document-units="mm"
     inkscape:zoom="1.4142136"
     inkscape:cx="121.97591"
     inkscape:cy="82.024382"
     inkscape:window-width="1707"
     inkscape:window-height="1007"
     inkscape:window-x="0"
     inkscape:window-y="0"
     inkscape:window-maximized="1"
     showgrid="true"
     inkscape:current-layer="layer1"><inkscape:grid
       id="grid4"
       units="px"
       originx="-165.00002"
       originy="-390.61331"
       spacingx="3"
       spacingy="3"
       empcolor="#0099e5"
       empopacity="0.30196078"
       color="#0099e5"
       opacity="0.14901961"
       empspacing="5"
       enabled="true"
       visible="true" /><inkscape:page
       x="0"
       y="0"
       width="300.76562"
       height="203.05733"
       id="page2"
       margin="0"
       bleed="0" /></sodipodi:namedview><defs
     id="defs1"><rect
       x="25.999999"
       y="161.5"
       width="36.999999"
       height="27.999999"
       id="rect2" /><rect
       x="46.499999"
       y="159.5"
       width="38.999999"
       height="13.5"
       id="rect1" /><inkscape:path-effect
       effect="skeletal"
       id="path-effect9"
       is_visible="true"
       lpeversion="1"
       pattern="m -4.4147332,10.130329 c 2.2238001,4.59971 4.44760021,5.65552 6.6714103,5.65924 2.2237801,0.004 4.4474202,-1.05953 6.6712102,-5.65924 2.2237897,-4.5995206 4.4475897,-5.6555406 6.6713707,-5.6590406 2.22383,-0.004 4.44761,1.05952 6.6714,5.6590406"
       copytype="repeated_stretched"
       prop_scale="1"
       scale_y_rel="false"
       spacing="0"
       normal_offset="0"
       tang_offset="0"
       prop_units="false"
       vertical_pattern="false"
       hide_knot="false"
       fuse_tolerance="0" /><inkscape:path-effect
       effect="skeletal"
       id="path-effect53"
       is_visible="true"
       lpeversion="1"
       pattern="m 1.35044,7.1590493 c 2.2237901,-4.5995202 4.4475902,-5.6555402 6.6713703,-5.6590402 2.2238297,-0.004 4.4476097,1.05952 6.6714007,5.6590402 2.2238,4.5997107 4.4476,5.6555207 6.67141,5.6592407 2.22378,0.004 4.44742,-1.05953 6.67121,-5.6592407"
       copytype="repeated_stretched"
       prop_scale="1"
       scale_y_rel="false"
       spacing="0"
       normal_offset="0"
       tang_offset="0"
       prop_units="false"
       vertical_pattern="false"
       hide_knot="false"
       fuse_tolerance="0" /><marker
       style="overflow:visible"
       id="marker10"
       refX="1.5"
       refY="0"
       orient="auto-start-reverse"
       inkscape:stockid="Triangle arrow"
       markerWidth="0.75"
       markerHeight="0.75"
       viewBox="0 0 1 1"
       inkscape:isstock="true"
       inkscape:collect="always"
       preserveAspectRatio="xMidYMid"><path
         style="fill:context-stroke;fill-rule:evenodd;stroke:context-stroke;stroke-width:0.5pt"
         d="m -1.1072586,0 4.325,2.5 v -5 z"
         id="path10" /></marker><marker
       style="overflow:visible"
       id="Triangle"
       refX="0.5"
       refY="0"
       orient="auto-start-reverse"
       inkscape:stockid="Triangle arrow"
       markerWidth="0.75"
       markerHeight="0.75"
       viewBox="0 0 1 1"
       inkscape:isstock="true"
       inkscape:collect="always"
       preserveAspectRatio="xMidYMid"><path
         transform="scale(0.5)"
         style="fill:context-stroke;fill-rule:evenodd;stroke:context-stroke;stroke-width:1pt"
         d="m 5.77,0 -8.65,5 v -10 z"
         id="path135" /></marker></defs><g
     inkscape:label="Layer 1"
     inkscape:groupmode="layer"
     id="layer1"
     transform="translate(-165.00002,-390.61331)"><path
       style="font-variation-settings:normal;opacity:1;vector-effect:none;fill:none;fill-opacity:1;stroke:#000000;stroke-width:3;stroke-linecap:butt;stroke-linejoin:round;stroke-miterlimit:4;stroke-dasharray:none;stroke-dashoffset:0;stroke-opacity:1;-inkscape-stroke:none;marker-mid:url(#Triangle);stop-color:#000000;stop-opacity:1"
       d="m 165,420 h 91.65862"
       id="path47"
       sodipodi:nodetypes="cc"
       inkscape:export-filename="examples/penguin.svg"
       inkscape:export-xdpi="96"
       inkscape:export-ydpi="96" /><path
       style="font-variation-settings:normal;opacity:1;vector-effect:none;fill:none;fill-opacity:1;stroke:#000000;stroke-width:3;stroke-linecap:butt;stroke-linejoin:round;stroke-miterlimit:4;stroke-dasharray:none;stroke-dashoffset:0;stroke-opacity:1;-inkscape-stroke:none;marker-mid:url(#Triangle);stop-color:#000000;stop-opacity:1"
       d="m 374.23438,420 h 91.53125"
       id="path48"
       sodipodi:nodetypes="cc" /><path
       style="font-variation-settings:normal;opacity:1;vector-effect:none;fill:none;fill-opacity:1;stroke:#000000;stroke-width:3;stroke-linecap:butt;stroke-linejoin:round;stroke-miterlimit:4;stroke-dasharray:none;stroke-dashoffset:0;stroke-opacity:1;-inkscape-stroke:none;stop-color:#000000;stop-opacity:1"
       d="m 255,419.9999 c 2.37501,-4.59952 4.75003,-5.65554 7.12503,-5.65904 2.37505,-0.004 4.75005,1.05952 7.12506,5.65904 2.37502,4.59971 4.75004,5.65552 7.12508,5.65924 2.37499,0.004 4.74984,-1.05953 7.12485,-5.65924 2.37501,-4.59952 4.75004,-5.65554 7.12503,-5.65904 2.37506,-0.004 4.75006,1.05952 7.12507,5.65904 2.37502,4.59971 4.75004,5.65552 7.12507,5.65924 2.375,0.004 4.74985,-1.05953 7.12486,-5.65924 2.37501,-4.59952 4.75003,-5.65554 7.12503,-5.65904 2.37505,-0.004 4.75005,1.05952 7.12506,5.65904 2.37502,4.59971 4.75004,5.65552 7.12507,5.65924 2.375,0.004 4.74985,-1.05953 7.12486,-5.65924 2.37501,-4.59952 4.75003,-5.65554 7.12503,-5.65904 2.37506,-0.004 4.75005,1.05952 7.12507,5.65904 2.37502,4.59971 4.75004,5.65552 7.12507,5.65924 2.375,0.004 4.74985,-1.05953 7.12486,-5.65924"
       id="path49"
       inkscape:path-effect="#path-effect53"
       inkscape:original-d="m 255,420 h 114"
       sodipodi:nodetypes="cc" /><path
       style="font-variation-settings:normal;opacity:1;fill:none;fill-opacity:1;stroke:#000000;stroke-width:3;stroke-linecap:butt;stroke-linejoin:round;stroke-miterlimit:4;stroke-dasharray:none;stroke-dashoffset:0;stroke-opacity:1;marker-mid:url(#marker10);stop-color:#000000;stop-opacity:1"
       id="path50"
       sodipodi:type="arc"
       sodipodi:cx="311.8494"
       sodipodi:cy="420.58102"
       sodipodi:rx="56.785004"
       sodipodi:ry="56.785004"
       sodipodi:start="0.0010209035"
       sodipodi:end="3.1248526"
       sodipodi:arc-type="arc"
       d="m 368.63437,420.639 a 56.785004,56.785004 0 0 1 -56.33867,56.72527 56.785004,56.785004 0 0 1 -57.22335,-55.83271"
       sodipodi:open="true" /><circle
       style="font-variation-settings:normal;opacity:1;fill:#000000;fill-opacity:1;stroke:none;stroke-width:3;stroke-linecap:butt;stroke-linejoin:round;stroke-miterlimit:4;stroke-dasharray:none;stroke-dashoffset:0;stroke-opacity:1"
       id="circle1"
       cx="254.5625"
       cy="419.5"
       r="5"
       inkscape:label="vertex" /><circle
       style="font-variation-settings:normal;opacity:1;fill:#000000;fill-opacity:1;stroke:none;stroke-width:3;stroke-linecap:butt;stroke-linejoin:round;stroke-miterlimit:4;stroke-dasharray:none;stroke-dashoffset:0;stroke-opacity:1"
       id="circle2"
       cx="369.23438"
       cy="420"
       r="5"
       inkscape:label="vertex" /><path
       style="fill:none;stroke:#000000;stroke-width:3.00094;stroke-linejoin:round"
       d="m 327.00005,455.99992 c -0.61965,5.18555 -0.7529,6.61045 0.89958,8.38465 0.051,0.0548 0.10329,0.10899 0.15686,0.16244 1.39415,1.43003 3.52176,2.24876 8.39292,1.32524 1.9666,-0.37281 3.52724,-0.38279 4.75745,-0.15552 1.93046,0.35632 3.08721,1.3036 3.90689,2.47402 1.34429,1.91863 1.78189,4.46241 -0.78271,8.91355 -2.56476,4.45125 -2.22047,6.91146 -0.97805,8.82627 0.88595,1.3658 2.2313,2.44392 4.78324,2.73175 1.02458,0.11438 2.24512,0.10188 3.70805,-0.0713 5.102,-0.60372 7.22859,0.70807 8.48598,2.58435 1.25784,1.87604 1.61947,4.30384 -0.83907,8.81335 -2.45869,4.50962 -1.92328,7.06165 -0.5133,8.95294 0.24995,0.33536 0.5281,0.6501 0.84498,0.93521 1.43759,1.30899 3.77318,2.0487 7.90921,1.10164 5.03475,-1.15276 7.13278,-0.34274 8.57413,1.1012 1.43471,1.43659 2.01582,3.35636 1.22912,8.43265"
       id="path8"
       sodipodi:nodetypes="cc"
       inkscape:path-effect="#path-effect9"
       inkscape:original-d="m 327,456 c 13.19657,8.65371 33.33868,52.35878 50.53524,64.51247"
       transform="translate(9.4647658,13.487531)" /><circle
       style="font-variation-settings:normal;opacity:1;fill:#000000;fill-opacity:1;stroke:none;stroke-width:3;stroke-linecap:butt;stroke-linejoin:round;stroke-miterlimit:4;stroke-dasharray:none;stroke-dashoffset:0;stroke-opacity:1"
       id="circle9"
       cx="335.52588"
       cy="470.75827"
       r="5"
       inkscape:label="vertex" /><circle
       style="font-variation-settings:normal;opacity:1;fill:#000000;fill-opacity:1;stroke:none;stroke-width:3;stroke-linecap:butt;stroke-linejoin:round;stroke-miterlimit:4;stroke-dasharray:none;stroke-dashoffset:0;stroke-opacity:1"
       id="circle10"
       cx="387.17679"
       cy="534.60223"
       r="5"
       inkscape:label="vertex" /><path
       style="font-variation-settings:normal;opacity:1;vector-effect:none;fill:none;fill-opacity:1;stroke:#000000;stroke-width:3;stroke-linecap:butt;stroke-linejoin:round;stroke-miterlimit:4;stroke-dasharray:none;stroke-dashoffset:0;stroke-opacity:1;-inkscape-stroke:none;marker-mid:url(#marker10);stop-color:#000000;stop-opacity:1"
       d="m 386.96994,535.1038 38.75,-20.375 38.75,-20.375"
       id="path13"
       sodipodi:nodetypes="ccc" /><path
       d="m 173.13334,395.90665 h -0.69334 l -3.44,0.93333 v 0.74667 c 0,0 0.32,-0.0533 0.74667,-0.0533 1.01333,0 1.17333,0.21333 1.17333,1.41333 v 14.98669 c 0.64,0.34666 2.18667,1.06666 4.45334,1.06666 3.70667,0 6.40001,-2.50667 6.40001,-7.28 0,-3.46668 -1.81334,-5.92001 -4.45334,-5.92001 -1.78667,0 -3.17334,1.14667 -4.10667,2.26667 h -0.08 z m 0,9.33334 c 0.48,-0.64 1.65333,-1.62667 3.01334,-1.62667 2.53333,0 3.2,2.40001 3.2,4.96001 0,2.96 -0.96,5.33334 -3.49334,5.33334 -1.41333,0 -2.21333,-0.64 -2.72,-1.25334 z"
       id="text11"
       style="font-size:26.6667px;font-family:'STIX Two Math';-inkscape-font-specification:'STIX Two Math, Normal';letter-spacing:-0.26px;stroke-width:3;stroke-linejoin:round;marker-mid:url(#marker10)"
       aria-label="b" /><path
       d="m 452.22665,409.33333 0.08,4.58667 h 0.56 l 0.56,-0.61334 h 0.0533 c 0.69334,0.29334 1.49334,0.69334 3.04001,0.69334 2.4,0 4.48,-0.96 4.48,-3.46667 0,-1.97334 -1.30667,-2.96001 -3.73334,-4.24001 -2.24,-1.14667 -3.12,-1.81333 -3.12,-2.85333 0,-1.20001 0.93333,-1.76001 2.16,-1.76001 1.62667,0 2.61334,0.77334 3.20001,3.30667 h 0.72 l -0.08,-4.08 h -0.53334 l -0.45333,0.56 h -0.0267 c -0.66667,-0.32 -1.46667,-0.69333 -2.8,-0.69333 -2.29334,0 -4.08001,1.17333 -4.08001,3.36 0,1.97334 1.09334,2.90667 3.52001,4.13334 2.48,1.22667 2.98667,1.73333 2.98667,2.98667 0,1.25333 -0.96,1.76 -2.29334,1.76 -1.97333,0 -2.98667,-0.93333 -3.54667,-3.68 z"
       id="text12"
       style="font-size:26.6667px;font-family:'STIX Two Math';-inkscape-font-specification:'STIX Two Math, Normal';letter-spacing:-0.26px;stroke-width:3;stroke-linejoin:round;marker-mid:url(#marker10)"
       aria-label="s"
       sodipodi:nodetypes="cccccsscssccccccsscsscc" /><g
       id="text13"
       style="font-size:26.6667px;font-family:'STIX Two Math';-inkscape-font-specification:'STIX Two Math, Normal';letter-spacing:-0.26px;stroke-width:3;stroke-linejoin:round;marker-mid:url(#marker10)"
       aria-label="W− "><path
         d="m 324.19681,390.61331 h -5.49334 v 0.8 c 1.22667,0 1.78667,0.32 1.78667,1.12 0,0.66667 -0.21334,1.46667 -0.48,2.32 l -3.04001,8.85335 h -0.13333 l -0.88,-2.64 -2.77334,-7.20001 c -0.18667,-0.48 -0.45333,-1.12 -0.45333,-1.54667 0,-0.58667 0.69333,-0.90667 2.02667,-0.90667 v -0.8 h -6.96001 v 0.8 c 1.52,0 1.94667,0.21333 2.8,2.53334 l 0.74667,2.05333 -3.01334,7.78668 h -0.13333 l -0.82667,-2.24 -3.09334,-7.78668 c -0.26666,-0.69333 -0.37333,-1.14667 -0.37333,-1.46667 0,-0.56 0.4,-0.88 1.76,-0.88 v -0.8 h -6.88001 v 0.8 c 1.38667,0.0533 2.10667,0.66667 2.93334,2.90667 l 5.54667,13.97335 h 0.66667 l 4.02667,-10.58668 h 0.10667 l 4,10.58668 h 0.72001 l 5.14667,-15.04002 c 0.48,-1.36 1.01333,-1.81333 2.26667,-1.84 z"
         id="path3" /><path
         style="font-size:13.3333px;baseline-shift:super"
         d="m 332.73679,394.46666 v -0.90667 h -7.94664 v 0.90667 z"
         id="path4" /></g><path
       d="m 263.49334,471.33333 c -0.66667,0.74667 -1.01334,1.09334 -1.86667,1.09334 -1.04,0 -1.28,-0.64 -1.28,-2.53334 v -7.52001 h 3.01333 v -1.12 h -3.01333 l 0.0267,-3.78667 h -0.69333 c -0.96,2.26667 -1.76,3.52 -3.01334,4.29334 v 0.61333 h 1.46667 v 8.26668 c 0,2.4 0.77333,3.36 2.56,3.36 1.70667,0 2.26667,-0.8 3.30667,-2.24 z"
       id="text14"
       style="font-size:26.6667px;font-family:'STIX Two Math';-inkscape-font-specification:'STIX Two Math, Normal';letter-spacing:-0.26px;stroke-width:3;stroke-linejoin:round;marker-mid:url(#marker10)"
       aria-label="t" /><path
       d="m 309.65326,506.67999 -2.61334,0.08 -2.69334,7.62667 -0.58667,1.89334 h -0.21333 v -1.92 c -0.08,-2.32001 -0.0267,-7.76001 -3.12,-7.76001 -1.60001,0 -2.53334,1.36 -2.96001,2.74667 l 0.45334,0.26666 c 0.53333,-0.85333 1.06667,-1.09333 1.81333,-1.09333 2.53334,0 2.74667,5.86667 2.90667,9.38668 -0.16,0.58666 -0.37333,1.2 -0.56,1.78667 -0.50666,1.52 -1.01333,3.06667 -0.98667,4.50667 l 1.38667,0.8 h 0.58667 c 0.96,-1.30667 0.98667,-4.02667 1.01333,-5.84001 0,-0.42667 0,-0.82667 0.0267,-1.12 1.78667,-3.65334 3.68001,-7.38668 5.54668,-10.96001 z m 2.08665,16.13335 c 1.06667,-0.48 3.30668,-1.38667 3.30668,-4.40001 0,-1.46666 -0.72001,-2.34667 -2.05334,-2.34667 -1.06667,0 -1.65334,0.72001 -1.65334,1.57334 0,0.77333 0.42667,1.44 1.46667,1.44 0.29334,0 0.53334,-0.0533 0.82667,-0.16 0,2.16 -1.22667,2.8 -2.21334,3.22667 z m 25.53341,-8.48001 h -0.82667 c -0.88,2.96 -1.54667,3.78667 -4.58667,3.78667 h -5.57334 v -0.16 l 10.80001,-15.44002 v -0.74667 h -13.04001 l -0.29334,4.66668 h 0.85334 c 0.53333,-2.96001 1.6,-3.46668 4.34667,-3.46668 h 4.82667 v 0.21334 l -10.88001,15.33335 v 0.77333 h 13.60001 z m 10.72667,-8.16001 c 0,-4.13334 -2.02667,-6.48001 -4.74667,-6.48001 -2.85334,0 -4.74667,2.42667 -4.74667,6.45334 0,3.60001 1.41333,6.64001 4.72,6.64001 3.33334,0 4.77334,-3.2 4.77334,-6.61334 z m -2.10667,0.13333 c 0,3.76001 -0.98666,5.65334 -2.66667,5.65334 -1.68,0 -2.64,-1.84 -2.64,-5.73334 0,-3.92 0.93334,-5.73334 2.64,-5.73334 1.76001,0 2.66667,1.78667 2.66667,5.81334 z"
       id="text15"
       style="font-size:26.6667px;font-family:'STIX Two Math';-inkscape-font-specification:'STIX Two Math, Normal';letter-spacing:-0.26px;stroke-width:3;stroke-linejoin:round;marker-mid:url(#marker10)"
       aria-label="γ, Z⁰" /><g
       id="text16"
       style="font-size:26.6667px;font-family:'STIX Two Math';-inkscape-font-specification:'STIX Two Math, Normal';letter-spacing:-0.26px;stroke-width:3;stroke-linejoin:round;marker-mid:url(#marker10)"
       aria-label="μ+"><path
         d="m 440.32982,483.25937 -0.13334,-0.24 -2.29333,0.08 -0.08,5.04001 c -0.0267,0.66667 -1.33334,5.62667 -3.73334,5.62667 -1.44,0 -2.42667,-1.73333 -2.42667,-3.33334 0,-0.32 0.0267,-0.58666 0.0267,-0.58666 l 0.96001,-6.61334 -0.10667,-0.21334 -2.4,0.08 0.0267,8.56001 c -0.61333,3.52001 -0.8,5.94668 -0.82667,9.68001 l 0.42667,0.08 2,-0.69333 c -0.32,-3.14667 -0.4,-4.77334 -0.42666,-6.93334 h 0.13333 c 0.37333,0.74667 1.04,2.18667 2.50667,2.18667 1.30667,0 2.8,-0.8 3.65334,-4.72001 h 0.16 c 0.13333,1.41334 0.21333,1.92 0.29333,2.45334 0.21334,1.25333 0.56,2.18667 1.86667,2.18667 1.73334,0 2.64,-1.46667 3.06667,-2.72001 l -0.45333,-0.29333 c -0.4,0.53333 -0.8,1.04 -1.65334,1.04 -0.98667,0 -1.52,-0.85333 -1.65333,-2.88 -0.0267,-0.4 -0.08,-1.04 -0.08,-1.2 z"
         id="path5" /><path
         style="font-size:13.3333px;baseline-shift:super"
         d="m 451.40313,481.96605 v -0.90667 h -3.49332 v -3.53332 h -0.96 v 3.53332 h -3.49333 v 0.90667 h 3.49333 v 3.53332 h 0.96 v -3.53332 z"
         id="path6" /></g><g
       id="text17"
       style="font-size:26.6667px;font-family:'STIX Two Math';-inkscape-font-specification:'STIX Two Math, Normal';letter-spacing:-0.26px;stroke-width:3;stroke-linejoin:round;marker-mid:url(#marker10)"
       aria-label="μ− "><path
         d="m 440.32982,575.51056 -0.13334,-0.24 -2.29333,0.08 -0.08,5.04001 c -0.0267,0.66667 -1.33334,5.62667 -3.73334,5.62667 -1.44,0 -2.42667,-1.73333 -2.42667,-3.33334 0,-0.32 0.0267,-0.58666 0.0267,-0.58666 l 0.96001,-6.61334 -0.10667,-0.21334 -2.4,0.08 0.0267,8.56001 c -0.61333,3.52001 -0.8,5.94668 -0.82667,9.68002 l 0.42667,0.08 2,-0.69334 c -0.32,-3.14667 -0.4,-4.77334 -0.42666,-6.93334 h 0.13333 c 0.37333,0.74667 1.04,2.18667 2.50667,2.18667 1.30667,0 2.8,-0.8 3.65334,-4.72001 h 0.16 c 0.13333,1.41334 0.21333,1.92 0.29333,2.45334 0.21334,1.25333 0.56,2.18667 1.86667,2.18667 1.73334,0 2.64,-1.46667 3.06667,-2.72001 l -0.45333,-0.29333 c -0.4,0.53334 -0.8,1.04 -1.65334,1.04 -0.98667,0 -1.52,-0.85333 -1.65333,-2.88 -0.0267,-0.4 -0.08,-1.04 -0.08,-1.2 z"
         id="path7" /><path
         style="font-size:13.3333px;baseline-shift:super"
         d="m 451.40313,574.21724 v -0.90667 h -7.94665 v 0.90667 z"
         id="path9" /></g><path
       style="font-variation-settings:normal;opacity:1;vector-effect:none;fill:none;fill-opacity:1;stroke:#000000;stroke-width:3;stroke-linecap:butt;stroke-linejoin:round;stroke-miterlimit:4;stroke-dasharray:none;stroke-dashoffset:0;stroke-opacity:1;-inkscape-stroke:none;marker-mid:url(#marker10);stop-color:#000000;stop-opacity:1"
       d="m 464.46994,574.8538 -38.75,-20.375 -38.75,-20.375"
       id="path19"
       sodipodi:nodetypes="ccc" /><text
       xml:space="preserve"
       transform="translate(165.00002,390.61331)"
       id="text1"
       style="fill:#000000;-inkscape-font-specification:'STIX Two Math, Normal';font-family:'STIX Two Math';line-height:normal;text-decoration-color:#000000;font-size:13.33333333px;letter-spacing:-0.26px;text-orientation:auto;stroke-linejoin:round;stroke-width:3;text-align:start;writing-mode:lr-tb;direction:ltr;white-space:pre;shape-inside:url(#rect1)"><tspan
         x="46.5"
         y="184.82667"
         id="tspan4"><tspan
           dx="0 8.8533268"
           id="tspan2">ΧΦ</tspan></tspan></text><text
       xml:space="preserve"
       transform="translate(165.00002,390.61331)"
       id="text2"
       style="fill:#000000;-inkscape-font-specification:'STIX Two Math, Normal';font-family:'STIX Two Math';line-height:normal;text-decoration-color:#000000;font-size:13.33333333px;letter-spacing:-0.26px;text-orientation:auto;stroke-linejoin:round;stroke-width:3;text-align:start;writing-mode:lr-tb;direction:ltr;white-space:pre;shape-inside:url(#rect2)" /></g><metadata
     id="metadata1"><rdf:RDF><cc:Work
         rdf:about="" /></rdf:RDF></metadata></svg>
