<?xml version="1.0" encoding="UTF-8" standalone="no"?>
<!-- Created with Inkscape (http://www.inkscape.org/) -->

<svg
   width="390.02496"
   height="233.99544"
   viewBox="0 0 390.02498 233.99545"
   version="1.1"
   id="svg1"
   inkscape:version="1.4 (e7c3feb100, 2024-10-09)"
   sodipodi:docname="scotogenic.svg"
   inkscape:export-filename="examples/penguin.png"
   inkscape:export-xdpi="96"
   inkscape:export-ydpi="96"
   xml:space="preserve"
   xmlns:inkscape="http://www.inkscape.org/namespaces/inkscape"
   xmlns:sodipodi="http://sodipodi.sourceforge.net/DTD/sodipodi-0.dtd"
   xmlns="http://www.w3.org/2000/svg"
   xmlns:svg="http://www.w3.org/2000/svg"
   xmlns:rdf="http://www.w3.org/1999/02/22-rdf-syntax-ns#"
   xmlns:cc="http://creativecommons.org/ns#"><sodipodi:namedview
     id="namedview1"
     pagecolor="#ffffff"
     bordercolor="#000000"
     borderopacity="0.25"
     inkscape:showpageshadow="2"
     inkscape:pageopacity="0.0"
     inkscape:pagecheckerboard="0"
     inkscape:deskcolor="#d1d1d1"
     inkscape:document-units="mm"
     inkscape:zoom="1.9603365"
     inkscape:cx="233.63336"
     inkscape:cy="154.5653"
     inkscape:window-width="1707"
     inkscape:window-height="1007"
     inkscape:window-x="0"
     inkscape:window-y="0"
     inkscape:window-maximized="1"
     showgrid="true"
     inkscape:current-layer="layer1"><inkscape:grid
       id="grid4"
       units="px"
       originx="-134.98749"
       originy="-509.26306"
       spacingx="3"
       spacingy="3"
       empcolor="#0099e5"
       empopacity="0.30196078"
       color="#0099e5"
       opacity="0.14901961"
       empspacing="5"
       enabled="true"
       visible="true" /><inkscape:page
       x="1.9036697e-15"
       y="0"
       width="390.02499"
       height="233.99545"
       id="page2"
       margin="0"
       bleed="0" /></sodipodi:namedview><defs
     id="defs1"><inkscape:path-effect
       effect="spiro"
       id="path-effect78"
       is_visible="true"
       lpeversion="1" /><inkscape:path-effect
       effect="spiro"
       id="path-effect62"
       is_visible="true"
       lpeversion="1" /><inkscape:path-effect
       effect="spiro"
       id="path-effect60"
       is_visible="true"
       lpeversion="1" /><inkscape:path-effect
       effect="spiro"
       id="path-effect59"
       is_visible="true"
       lpeversion="1" /><inkscape:path-effect
       effect="spiro"
       id="path-effect58"
       is_visible="true"
       lpeversion="1" /><inkscape:path-effect
       effect="spiro"
       id="path-effect55"
       is_visible="true"
       lpeversion="1" /><inkscape:path-effect
       effect="spiro"
       id="path-effect10"
       is_visible="true"
       lpeversion="1" /><inkscape:path-effect
       effect="spiro"
       id="path-effect7"
       is_visible="true"
       lpeversion="1" /><marker
       style="overflow:visible"
       id="marker10"
       refX="1.5"
       refY="0"
       orient="auto-start-reverse"
       inkscape:stockid="Triangle arrow"
       markerWidth="0.75"
       markerHeight="0.75"
       viewBox="0 0 1 1"
       inkscape:isstock="true"
       inkscape:collect="always"
       preserveAspectRatio="xMidYMid"><path
         style="fill:context-stroke;fill-rule:evenodd;stroke:context-stroke;stroke-width:0.5pt"
         d="m -1.1072586,0 4.325,2.5 v -5 z"
         id="path10" /></marker><marker
       style="overflow:visible"
       id="Triangle"
       refX="0.5"
       refY="0"
       orient="auto-start-reverse"
       inkscape:stockid="Triangle arrow"
       markerWidth="0.75"
       markerHeight="0.75"
       viewBox="0 0 1 1"
       inkscape:isstock="true"
       inkscape:collect="always"
       preserveAspectRatio="xMidYMid"><path
         transform="scale(0.5)"
         style="fill:context-stroke;fill-rule:evenodd;stroke:context-stroke;stroke-width:1pt"
         d="m 5.77,0 -8.65,5 v -10 z"
         id="path135" /></marker></defs><g
     inkscape:label="Layer 1"
     inkscape:groupmode="layer"
     id="layer1"
     transform="translate(-134.98749,-509.26305)"><path
       style="fill:#ffffff;stroke-width:3;stroke-linejoin:round;stroke-dasharray:none"
       d="m 134.99999,689.99999 h 105.00001"
       id="path8"
       inkscape:original-d="m 134.99999,689.99999 c 35.00001,0 70.00001,0 105.00001,0"
       inkscape:path-effect="#path-effect10" /><path
       style="font-variation-settings:normal;opacity:1;vector-effect:none;fill:none;fill-opacity:1;stroke:#000000;stroke-width:3;stroke-linecap:butt;stroke-linejoin:round;stroke-miterlimit:4;stroke-dasharray:none;stroke-dashoffset:0;stroke-opacity:1;-inkscape-stroke:none;marker-mid:url(#Triangle);stop-color:#000000;stop-opacity:1"
       d="m 135,705 c 14.87466,-0.12396 29.74983,-0.18646 44.625,-0.18749 15.12517,-0.001 30.25035,0.0615 45.375,0.18749"
       id="path41"
       inkscape:path-effect="#path-effect55"
       inkscape:original-d="m 135,705 c 14.50001,-0.24998 29.50001,-0.24998 44.625,-0.18749 15.125,0.0625 30.375,0.18749 45.375,0.18749"
       sodipodi:nodetypes="csc" /><path
       style="font-variation-settings:normal;opacity:1;vector-effect:none;fill:none;fill-opacity:1;stroke:#00a2ff;stroke-width:3;stroke-linecap:butt;stroke-linejoin:round;stroke-miterlimit:4;stroke-dasharray:9.00001, 9.00001;stroke-dashoffset:0;stroke-opacity:1;-inkscape-stroke:none;stop-color:#000000;stop-opacity:1"
       id="path55"
       sodipodi:type="arc"
       sodipodi:cx="330"
       sodipodi:cy="705"
       sodipodi:rx="104.99999"
       sodipodi:ry="104.99999"
       sodipodi:start="3.1415927"
       sodipodi:end="0"
       sodipodi:open="true"
       sodipodi:arc-type="arc"
       d="m 225.00001,705 a 104.99999,104.99999 0 0 1 104.99999,-104.99999 104.99999,104.99999 0 0 1 104.99999,104.99999" /><path
       style="font-variation-settings:normal;opacity:1;vector-effect:none;fill:none;fill-opacity:1;stroke:#000000;stroke-width:3;stroke-linecap:butt;stroke-linejoin:round;stroke-miterlimit:4;stroke-dasharray:none;stroke-dashoffset:0;stroke-opacity:1;-inkscape-stroke:none;marker-mid:url(#marker10);stop-color:#000000;stop-opacity:1"
       d="m 135.49999,705.24998 c 14.87466,-0.12396 29.74983,-0.18646 44.625,-0.18749 15.12517,-0.001 30.25035,0.0614 45.375,0.18749"
       id="path56"
       inkscape:path-effect="#path-effect58"
       inkscape:original-d="m 135.49999,705.24998 c 14.50001,-0.24998 29.50001,-0.24998 44.625,-0.18749 15.125,0.0625 30.375,0.18749 45.375,0.18749"
       transform="translate(299.50001,-0.24998885)"
       sodipodi:nodetypes="csc" /><path
       style="font-variation-settings:normal;opacity:1;vector-effect:none;fill:none;fill-opacity:1;stroke:#ff833c;stroke-width:3;stroke-linecap:butt;stroke-linejoin:round;stroke-miterlimit:4;stroke-dasharray:none;stroke-dashoffset:0;stroke-opacity:1;-inkscape-stroke:none;marker-mid:url(#marker10);stop-color:#000000;stop-opacity:1"
       d="m 225,705 c 17.17325,0.16998 34.34733,0.25655 51.52142,0.25972 17.82648,0.003 35.65297,-0.0833 53.47858,-0.25972"
       id="path58"
       inkscape:path-effect="#path-effect59"
       inkscape:original-d="m 225,705 c 16.19522,0.3463 33.69523,0.3463 51.52142,0.25972 17.82619,-0.0866 35.97858,-0.25972 53.47858,-0.25972"
       sodipodi:nodetypes="csc" /><path
       style="font-variation-settings:normal;opacity:1;vector-effect:none;fill:none;fill-opacity:1;stroke:#ff833c;stroke-width:3;stroke-linecap:butt;stroke-linejoin:round;stroke-miterlimit:4;stroke-dasharray:none;stroke-dashoffset:0;stroke-opacity:1;-inkscape-stroke:none;marker-mid:url(#Triangle);stop-color:#000000;stop-opacity:1"
       d="m 435,705 c -17.20748,-0.003 -34.41495,-0.005 -51.62243,-0.005 -17.79252,-6e-5 -35.58505,0.002 -53.37757,0.005"
       id="path59"
       inkscape:path-effect="#path-effect60"
       inkscape:original-d="m 435,705 c -16.32991,-0.007 -33.82991,-0.007 -51.62243,-0.005 -17.79252,0.002 -35.87757,0.005 -53.37757,0.005"
       sodipodi:nodetypes="csc"
       transform="matrix(-1,0,0,1,765,0)" /><path
       style="font-variation-settings:normal;opacity:1;vector-effect:none;fill:none;fill-opacity:1;stroke:#000000;stroke-width:3;stroke-linecap:butt;stroke-linejoin:round;stroke-miterlimit:4;stroke-dasharray:9.00001, 9.00001;stroke-dashoffset:0;stroke-opacity:1;-inkscape-stroke:none;stop-color:#000000;stop-opacity:1"
       d="m 330,600 -75,-60"
       id="path61"
       inkscape:path-effect="#path-effect62"
       inkscape:original-d="m 330,600 c -22.32001,-17.57254 -49.586,-40.07654 -75,-60"
       sodipodi:nodetypes="cc" /><circle
       style="font-variation-settings:normal;opacity:1;fill:#000000;fill-opacity:1;stroke:none;stroke-width:3;stroke-linecap:butt;stroke-linejoin:round;stroke-miterlimit:4;stroke-dasharray:none;stroke-dashoffset:0;stroke-opacity:1"
       id="circle62"
       cx="331.82321"
       cy="600"
       r="5"
       inkscape:label="vertex" /><circle
       style="font-variation-settings:normal;opacity:1;fill:#000000;fill-opacity:1;stroke:none;stroke-width:3;stroke-linecap:butt;stroke-linejoin:round;stroke-miterlimit:4;stroke-dasharray:none;stroke-dashoffset:0;stroke-opacity:1"
       id="circle63"
       cx="224.69896"
       cy="705"
       r="5"
       inkscape:label="vertex" /><circle
       style="font-variation-settings:normal;opacity:1;fill:#000000;fill-opacity:1;stroke:none;stroke-width:3;stroke-linecap:butt;stroke-linejoin:round;stroke-miterlimit:4;stroke-dasharray:none;stroke-dashoffset:0;stroke-opacity:1"
       id="circle64"
       cx="434.28683"
       cy="705"
       r="5"
       inkscape:label="vertex" /><circle
       style="font-variation-settings:normal;opacity:1;fill:#d9d9d9;fill-opacity:1;stroke:#000000;stroke-width:1.5;stroke-linecap:butt;stroke-linejoin:round;stroke-miterlimit:4;stroke-dasharray:none;stroke-dashoffset:0;stroke-opacity:1"
       id="circle65"
       cx="330"
       cy="704.99915"
       r="5"
       inkscape:label="vertex" /><g
       id="text65"
       style="font-size:33.3333px;font-family:'STIX Two Text';-inkscape-font-specification:'STIX Two Text, Normal';letter-spacing:-0.26px;stroke-width:1.5;stroke-linejoin:round;marker-mid:url(#marker10)"
       aria-label="νL"><path
         d="m 164.89069,736.82519 c 3.46667,-3.33333 7.46666,-7.76666 7.46666,-12.09999 0,-3.36666 -2.46666,-4.09999 -3.79999,-4.09999 l -0.23334,0.33333 c 0.5,0.7 1.1,1.83333 1.1,3.7 0,3.89999 -2.63333,7.33332 -4.89999,9.86665 l -0.26667,-0.1 c 0.0667,-1.73333 0.16667,-4.29999 0.16667,-6.19999 0,-6.39999 -1.36667,-7.59999 -3.3,-7.59999 -1.93333,0 -3.1,1.46666 -3.76666,3.39999 l 0.56666,0.33334 c 0.53334,-0.7 1.13334,-1.36667 2.16667,-1.36667 2.1,0 2.86666,4.36666 2.86666,9.19999 0,1.7 -0.1,3.03333 -0.26666,4.06666 l 0.1,0.4 z"
         id="path9" /><path
         style="font-size:17.3333px;baseline-shift:sub"
         d="m 182.12264,743.25852 0.52,-3.38 h -0.55467 c -0.676,2.01067 -0.95333,2.652 -3.27599,2.652 h -0.79733 c -1.02267,0 -1.31733,-0.156 -1.31733,-0.91867 v -7.52265 c 0,-1.35199 0.29466,-1.69866 1.69866,-1.69866 v -0.52 h -4.87066 v 0.52 c 1.38667,0 1.57733,0.34667 1.57733,1.68133 v 7.05465 c 0,1.352 -0.19066,1.612 -1.57733,1.612 v 0.52 z"
         id="path11" /></g><g
       id="text68"
       style="font-size:33.3333px;font-family:'STIX Two Text';-inkscape-font-specification:'STIX Two Text, Normal';letter-spacing:-0.26px;stroke-width:1.5;stroke-linejoin:round;marker-mid:url(#marker10)"
       aria-label="νL"><path
         d="m 484.89069,736.82519 c 3.46667,-3.33333 7.46666,-7.76666 7.46666,-12.09999 0,-3.36666 -2.46666,-4.09999 -3.79999,-4.09999 l -0.23334,0.33333 c 0.5,0.7 1.1,1.83333 1.1,3.7 0,3.89999 -2.63333,7.33332 -4.89999,9.86665 l -0.26667,-0.1 c 0.0667,-1.73333 0.16667,-4.29999 0.16667,-6.19999 0,-6.39999 -1.36667,-7.59999 -3.3,-7.59999 -1.93333,0 -3.1,1.46666 -3.76666,3.39999 l 0.56666,0.33334 c 0.53334,-0.7 1.13334,-1.36667 2.16667,-1.36667 2.1,0 2.86666,4.36666 2.86666,9.19999 0,1.7 -0.1,3.03333 -0.26666,4.06666 l 0.1,0.4 z"
         id="path5" /><path
         style="font-size:17.3333px;baseline-shift:sub"
         d="m 502.12264,743.25852 0.52,-3.38 h -0.55467 c -0.676,2.01067 -0.95333,2.652 -3.27599,2.652 h -0.79733 c -1.02267,0 -1.31733,-0.156 -1.31733,-0.91867 v -7.52265 c 0,-1.35199 0.29466,-1.69866 1.69866,-1.69866 v -0.52 h -4.87066 v 0.52 c 1.38667,0 1.57733,0.34667 1.57733,1.68133 v 7.05465 c 0,1.352 -0.19066,1.612 -1.57733,1.612 v 0.52 z"
         id="path6" /></g><path
       d="m 241.93453,631.87906 c 0.0667,-2.16666 0.16667,-3.93333 0.23334,-5.46666 0.13333,-3.23333 0.23333,-5.49999 0.2,-8.36666 0,-6.33332 -1.16667,-8.83332 -3.7,-8.83332 -3.03333,0 -4.36666,3.16666 -5,5.83333 h -0.23333 c 0.1,-3.66667 -0.3,-5.73333 -2.46666,-5.73333 -2.26667,0 -3.26667,1.86666 -3.83333,3.46666 l 0.6,0.36667 c 0.46666,-0.63334 0.99999,-1.46667 2.26666,-1.46667 1.16667,0 1.66667,1.33333 1.66667,3.76666 0,0.46667 -0.0667,1.23334 -0.0667,1.4 l -1.36667,7.96666 0.1,0.4 h 2.93333 l 0.33334,-6.36666 c 0.0333,-0.83333 1.4,-6.89999 4.56666,-6.89999 1.4,0 2.5,1.2 2.5,5.56666 0,4.9 -0.86667,8.79999 -2.03333,14.86665 l 0.46666,0.13334 z"
       id="text69"
       style="font-size:33.3333px;font-family:'STIX Two Text';-inkscape-font-specification:'STIX Two Text, Normal';letter-spacing:-0.26px;stroke-width:1.5;stroke-linejoin:round;marker-mid:url(#marker10)"
       aria-label="η" /><path
       d="m 427.09139,631.87906 c 0.0667,-2.16666 0.16667,-3.93333 0.23334,-5.46666 0.13333,-3.23333 0.23333,-5.49999 0.2,-8.36666 0,-6.33332 -1.16667,-8.83332 -3.7,-8.83332 -3.03333,0 -4.36666,3.16666 -5,5.83333 h -0.23333 c 0.1,-3.66667 -0.3,-5.73333 -2.46666,-5.73333 -2.26667,0 -3.26667,1.86666 -3.83333,3.46666 l 0.6,0.36667 c 0.46666,-0.63334 1,-1.46667 2.26666,-1.46667 1.16667,0 1.66667,1.33333 1.66667,3.76666 0,0.46667 -0.0667,1.23334 -0.0667,1.4 l -1.36667,7.96666 0.1,0.4 h 2.93333 l 0.33334,-6.36666 c 0.0333,-0.83333 1.4,-6.89999 4.56666,-6.89999 1.4,0 2.5,1.2 2.5,5.56666 0,4.9 -0.86667,8.79999 -2.03333,14.86665 l 0.46666,0.13334 z"
       id="text70"
       style="font-size:33.3333px;font-family:'STIX Two Text';-inkscape-font-specification:'STIX Two Text, Normal';letter-spacing:-0.26px;stroke-width:1.5;stroke-linejoin:round;marker-mid:url(#marker10)"
       aria-label="η" /><path
       d="m 283.40399,742.75987 v -14.69598 c 0,-2.78666 0.41066,-3.93066 2.66933,-3.93066 v -0.88 h -6.92266 v 0.88 c 2.52266,0 2.78666,1.056 2.78666,3.78399 v 9.50399 h -0.14667 l -10.85332,-14.16798 h -4.98666 v 0.88 c 1.232,0 1.78933,0.264 2.75733,1.496 v 12.52532 c 0,2.96266 -0.44,3.49066 -2.75733,3.49066 v 0.88 h 6.86399 v -0.88 c -2.19999,0 -2.66933,-0.55733 -2.66933,-3.49066 v -11.08799 h 0.14667 l 12.14399,15.69331 z"
       id="text71"
       style="font-size:29.3333px;font-family:'STIX Two Text';-inkscape-font-specification:'STIX Two Text, Normal';letter-spacing:-0.26px;stroke-width:1.5;stroke-linejoin:round;marker-mid:url(#marker10)"
       aria-label="N" /><path
       d="m 388.40399,742.75987 v -14.69598 c 0,-2.78666 0.41066,-3.93066 2.66933,-3.93066 v -0.88 h -6.92266 v 0.88 c 2.52266,0 2.78666,1.056 2.78666,3.78399 v 9.50399 h -0.14667 l -10.85332,-14.16798 h -4.98666 v 0.88 c 1.232,0 1.78933,0.264 2.75733,1.496 v 12.52532 c 0,2.96266 -0.44,3.49066 -2.75733,3.49066 v 0.88 h 6.86399 v -0.88 c -2.19999,0 -2.66933,-0.55733 -2.66933,-3.49066 v -11.08799 h 0.14667 l 12.14399,15.69331 z"
       id="text72"
       style="font-size:29.3333px;font-family:'STIX Two Text';-inkscape-font-specification:'STIX Two Text, Normal';letter-spacing:-0.26px;stroke-width:1.5;stroke-linejoin:round;marker-mid:url(#marker10)"
       aria-label="N" /><g
       id="text73"
       style="font-size:29.3333px;font-family:'STIX Two Text';-inkscape-font-specification:'STIX Two Text, Normal';letter-spacing:-0.26px;stroke-width:1.5;stroke-linejoin:round;marker-mid:url(#marker10)"
       aria-label="H0"><path
         d="m 246.7278,533.7804 v -0.88 c -2.64,0 -2.87466,-0.38134 -2.87466,-2.96267 v -5.48532 h 9.62132 v 5.48532 c 0,2.552 -0.23467,2.96267 -2.84533,2.96267 v 0.88 h 8.38932 v -0.88 c -2.66933,0 -2.87466,-0.41067 -2.87466,-2.96267 v -11.55732 c 0,-2.31733 0.088,-2.99199 2.87466,-2.99199 v -0.88 h -8.38932 v 0.88 c 2.69866,0 2.84533,0.704 2.84533,2.99199 v 4.928 h -9.62132 v -4.928 c 0,-2.28799 0.088,-2.99199 2.87466,-2.99199 v -0.88 h -8.41866 v 0.88 c 2.69867,0 2.84533,0.704 2.84533,2.99199 v 11.55732 c 0,2.61067 -0.20533,2.96267 -2.84533,2.96267 v 0.88 z"
         id="path3" /><path
         style="font-size:18.6667px;baseline-shift:super"
         d="m 264.3958,522.25241 c 2.93068,0 4.12535,-2.93067 4.12535,-6.12268 0,-3.84534 -1.68001,-6.06668 -4.08801,-6.06668 -2.70667,0 -4.14401,2.46401 -4.14401,6.01068 0,3.30401 1.10134,6.17868 4.10667,6.17868 z m 0,-0.672 c -1.49333,0 -2.31467,-1.79201 -2.31467,-5.41335 0,-3.696 0.82134,-5.46934 2.29601,-5.46934 1.53067,0 2.33334,1.75467 2.33334,5.54401 0,3.58401 -0.84001,5.33868 -2.31468,5.33868 z"
         id="path4" /></g><g
       id="text76"
       style="font-size:33.3333px;font-family:'STIX Two Text';-inkscape-font-specification:'STIX Two Text, Normal';letter-spacing:-0.26px;stroke-width:1.5;stroke-linejoin:round;marker-mid:url(#marker10)"
       aria-label="H0"><path
         style="font-size:29.3333px"
         d="m 410.80562,534.58038 v -0.88 c -2.64,0 -2.87466,-0.38133 -2.87466,-2.96266 v -5.48533 h 9.62132 v 5.48533 c 0,2.552 -0.23467,2.96266 -2.84533,2.96266 v 0.88 h 8.38932 v -0.88 c -2.66933,0 -2.87466,-0.41066 -2.87466,-2.96266 v -11.55732 c 0,-2.31733 0.088,-2.992 2.87466,-2.992 v -0.87999 h -8.38932 v 0.87999 c 2.69866,0 2.84533,0.704 2.84533,2.992 v 4.928 h -9.62132 v -4.928 c 0,-2.288 0.088,-2.992 2.87466,-2.992 v -0.87999 h -8.41866 v 0.87999 c 2.69867,0 2.84533,0.704 2.84533,2.992 v 11.55732 c 0,2.61066 -0.20533,2.96266 -2.84533,2.96266 v 0.88 z"
         id="path1" /><path
         style="font-size:18.6667px;baseline-shift:super"
         d="m 428.47362,521.4524 c 2.93068,0 4.12535,-2.93068 4.12535,-6.12268 0,-3.84534 -1.68001,-6.06668 -4.08801,-6.06668 -2.70667,0 -4.14401,2.46401 -4.14401,6.01068 0,3.304 1.10134,6.17868 4.10667,6.17868 z m 0,-0.672 c -1.49333,0 -2.31467,-1.79201 -2.31467,-5.41335 0,-3.696 0.82134,-5.46934 2.29601,-5.46934 1.53067,0 2.33334,1.75467 2.33334,5.54401 0,3.58401 -0.84001,5.33868 -2.31468,5.33868 z"
         id="path2" /></g><path
       style="font-variation-settings:normal;opacity:1;vector-effect:none;fill:none;fill-opacity:1;stroke:#000000;stroke-width:3;stroke-linecap:butt;stroke-linejoin:round;stroke-miterlimit:4;stroke-dasharray:9.00001, 9.00001;stroke-dashoffset:0;stroke-opacity:1;-inkscape-stroke:none;stop-color:#000000;stop-opacity:1"
       d="m 330,600 -75,-60"
       id="path77"
       inkscape:path-effect="#path-effect78"
       inkscape:original-d="m 330,600 c -22.32001,-17.57254 -49.586,-40.07654 -75,-60"
       sodipodi:nodetypes="cc"
       transform="matrix(-1,0,0,1,663.87409,0)" /></g><metadata
     id="metadata1"><rdf:RDF><cc:Work
         rdf:about="" /></rdf:RDF></metadata></svg>
