<?xml version="1.0" encoding="UTF-8" standalone="no"?>
<!-- Created with Inkscape (http://www.inkscape.org/) -->

<svg
   width="338.29956"
   height="256.10519"
   viewBox="0 0 338.29957 256.1052"
   version="1.1"
   id="svg1"
   inkscape:version="1.4 (e7c3feb100, 2024-10-09)"
   sodipodi:docname="something.svg"
   inkscape:export-filename="examples/penguin.png"
   inkscape:export-xdpi="96"
   inkscape:export-ydpi="96"
   xml:space="preserve"
   xmlns:inkscape="http://www.inkscape.org/namespaces/inkscape"
   xmlns:sodipodi="http://sodipodi.sourceforge.net/DTD/sodipodi-0.dtd"
   xmlns="http://www.w3.org/2000/svg"
   xmlns:svg="http://www.w3.org/2000/svg"
   xmlns:rdf="http://www.w3.org/1999/02/22-rdf-syntax-ns#"
   xmlns:cc="http://creativecommons.org/ns#"
   xmlns:ns1="http://www.iki.fi/pav/software/textext/"><sodipodi:namedview
     id="namedview1"
     pagecolor="#ffffff"
     bordercolor="#000000"
     borderopacity="0.25"
     inkscape:showpageshadow="2"
     inkscape:pageopacity="0.0"
     inkscape:pagecheckerboard="0"
     inkscape:deskcolor="#d1d1d1"
     inkscape:document-units="mm"
     inkscape:zoom="1.9603365"
     inkscape:cx="96.412021"
     inkscape:cy="114.01104"
     inkscape:window-width="1920"
     inkscape:window-height="1020"
     inkscape:window-x="0"
     inkscape:window-y="0"
     inkscape:window-maximized="1"
     showgrid="true"
     inkscape:current-layer="layer1"><inkscape:grid
       id="grid4"
       units="px"
       originx="-190.04143"
       originy="-444.94381"
       spacingx="3"
       spacingy="3"
       empcolor="#0099e5"
       empopacity="0.30196078"
       color="#0099e5"
       opacity="0.14901961"
       empspacing="5"
       enabled="true"
       visible="true" /><inkscape:page
       x="0"
       y="0"
       width="338.29956"
       height="256.10519"
       id="page2"
       margin="0"
       bleed="0" /></sodipodi:namedview><defs
     id="defs1"><inkscape:path-effect
       effect="spiro"
       id="path-effect68"
       is_visible="true"
       lpeversion="1" /><inkscape:path-effect
       effect="spiro"
       id="path-effect65"
       is_visible="true"
       lpeversion="1" /><inkscape:path-effect
       effect="spiro"
       id="path-effect64"
       is_visible="true"
       lpeversion="1" /><inkscape:path-effect
       effect="spiro"
       id="path-effect63"
       is_visible="true"
       lpeversion="1" /><inkscape:path-effect
       effect="spiro"
       id="path-effect57"
       is_visible="true"
       lpeversion="1" /><inkscape:path-effect
       effect="skeletal"
       id="path-effect38"
       is_visible="true"
       lpeversion="1"
       pattern="m 1.35044,7.1590493 c 2.2237901,-4.5995202 4.4475902,-5.6555402 6.6713703,-5.6590402 2.2238297,-0.004 4.4476097,1.05952 6.6714007,5.6590402 2.2238,4.5997107 4.4476,5.6555207 6.67141,5.6592407 2.22378,0.004 4.44742,-1.05953 6.67121,-5.6592407"
       copytype="repeated_stretched"
       prop_scale="1"
       scale_y_rel="false"
       spacing="0"
       normal_offset="0"
       tang_offset="0"
       prop_units="false"
       vertical_pattern="false"
       hide_knot="false"
       fuse_tolerance="0" /><inkscape:path-effect
       effect="spiro"
       id="path-effect83"
       is_visible="true"
       lpeversion="1" /><inkscape:path-effect
       effect="skeletal"
       id="path-effect81"
       is_visible="true"
       lpeversion="1"
       pattern="m 0,1.5000001 c 3.4075201,0 6.8049802,0.69892 9.6142503,1.93488 2.8102797,1.2359701 5.0152607,3.0053201 6.3123107,4.8997402 1.29604,1.8962497 1.67611,3.9046997 1.2508,5.5728907 -0.42532,1.66636 -1.64997,2.97773 -3.19839,3.63618 -1.549421,0.65845 -3.406511,0.6566 -4.9569407,0 -1.54942,-0.65845 -2.7720601,-1.96982 -3.1983801,-3.63618 -0.42732,-1.668191 -0.0442,-3.676641 1.2508001,-5.5728907 1.29504,-1.8962601 3.5020297,-3.6619301 6.3112997,-4.8997402 2.809271,-1.2378 6.206731,-1.93488 9.614251,-1.93488"
       copytype="repeated_stretched"
       prop_scale="1"
       scale_y_rel="false"
       spacing="0"
       normal_offset="0"
       tang_offset="0"
       prop_units="false"
       vertical_pattern="false"
       hide_knot="false"
       fuse_tolerance="0" /><marker
       style="overflow:visible"
       id="marker10"
       refX="1.5"
       refY="0"
       orient="auto-start-reverse"
       inkscape:stockid="Triangle arrow"
       markerWidth="0.75"
       markerHeight="0.75"
       viewBox="0 0 1 1"
       inkscape:isstock="true"
       inkscape:collect="always"
       preserveAspectRatio="xMidYMid"><path
         style="fill:context-stroke;fill-rule:evenodd;stroke:context-stroke;stroke-width:0.5pt"
         d="m -1.1072586,0 4.325,2.5 v -5 z"
         id="path10" /></marker><marker
       style="overflow:visible"
       id="Triangle"
       refX="0.5"
       refY="0"
       orient="auto-start-reverse"
       inkscape:stockid="Triangle arrow"
       markerWidth="0.75"
       markerHeight="0.75"
       viewBox="0 0 1 1"
       inkscape:isstock="true"
       inkscape:collect="always"
       preserveAspectRatio="xMidYMid"><path
         transform="scale(0.5)"
         style="fill:context-stroke;fill-rule:evenodd;stroke:context-stroke;stroke-width:1pt"
         d="m 5.77,0 -8.65,5 v -10 z"
         id="path135" /></marker></defs><g
     inkscape:label="Layer 1"
     inkscape:groupmode="layer"
     id="layer1"
     transform="translate(-190.04143,-444.9438)"><g
       id="g79"><path
         style="opacity:1;vector-effect:none;fill:none;stroke:#000000;stroke-width:3;stroke-linejoin:round;marker-mid:url(#marker10);stop-color:#000000;stop-opacity:1"
         d="m 285,570 c 0,-41.42136 33.57864,-75 75,-75 41.42136,0 75,33.57864 75,75"
         id="path79" /><path
         style="opacity:1;vector-effect:none;fill:none;stroke:#000000;stroke-width:3;stroke-linejoin:round;marker-mid:url(#marker10);stop-color:#000000;stop-opacity:1"
         d="m 435,570 c 0,41.42136 -33.57864,75 -75,75 -41.42136,0 -75,-33.57864 -75,-75"
         id="path78" /></g><path
       style="font-variation-settings:normal;opacity:1;fill:none;fill-opacity:1;stroke:#000000;stroke-width:3.49146;stroke-linecap:butt;stroke-linejoin:round;stroke-miterlimit:4;stroke-dasharray:none;stroke-dashoffset:0;stroke-opacity:1"
       id="path80"
       sodipodi:type="arc"
       sodipodi:cx="299.23483"
       sodipodi:cy="611.74493"
       sodipodi:rx="29.122524"
       sodipodi:ry="29.620409"
       sodipodi:start="0.62133701"
       sodipodi:end="4.7043906"
       sodipodi:open="true"
       sodipodi:arc-type="arc"
       d="m 329.67574,633.74694 c -2.81611,3.87189 -6.65095,6.38319 -10.32257,7.37334 -3.6493,0.98457 -6.78085,0.40143 -8.78394,-0.82548 -2.01003,-1.23348 -2.92752,-3.06971 -3.11805,-4.7669 -0.1872,-1.67133 0.31928,-3.29329 1.10011,-4.36714 0.79946,-1.09883 1.96547,-1.76605 3.2981,-1.91088 1.29939,-0.13931 2.94441,0.22097 4.30739,1.18302 1.38894,0.97982 2.56518,2.65266 2.67143,5.00263 0.10622,2.35001 -0.96208,5.39874 -3.54883,8.08851 -2.63826,2.7433 -6.60569,4.85486 -11.1458,5.49337 -4.54008,0.6385 -8.98461,-0.29416 -12.31216,-2.23497 -2.721,-1.58665 -4.44218,-3.69062 -5.21378,-5.68957 -0.15949,-0.42271 -0.27765,-0.83796 -0.35773,-1.24186 -0.45902,-2.32535 0.30805,-4.21649 1.42894,-5.50051 0.80328,-0.91975 1.82931,-1.56667 2.78378,-1.94107 0,0 0,0 0,0 0.3578,-0.12975 0.71445,-0.22036 1.06305,-0.26954 1.25716,-0.177 2.47535,0.1768 3.48637,1.01278 0.9862,0.81792 1.89448,2.22854 2.17008,3.87426 0.28074,1.6736 -0.0848,3.68519 -1.67766,5.40855 -1.58414,1.71392 -4.45958,3.11236 -8.33434,3.07836 -0.78169,-0.007 -1.59603,-0.0733 -2.43423,-0.20486 -3.26505,-0.61439 -6.57108,-2.18975 -9.33336,-4.57967 -3.49545,-3.02426 -5.66778,-6.95038 -6.38868,-10.65877 -0.71657,-3.68396 0.0483,-6.77072 1.39218,-8.70442 1.34887,-1.9374 3.23172,-2.75102 4.93862,-2.84516 1.68028,-0.0923 3.27733,0.50636 4.31654,1.36269 1.06281,0.87625 1.67882,2.11158 1.74812,3.48554 0.0658,1.34361 -0.40571,2.97909 -1.47399,4.27351 -1.08562,1.31616 -2.85271,2.34542 -5.20822,2.28158 -2.3511,-0.0637 -5.28628,-1.28472 -7.83387,-4.04515 -2.56529,-2.77964 -4.44441,-6.85269 -4.82376,-11.44902 -0.29321,-3.55258 0.3455,-7.0625 1.70087,-10.01587 0.39949,-0.82414 0.84572,-1.58384 1.32691,-2.27375 2.20036,-3.15559 4.99828,-4.70107 7.31883,-5.0215 2.33332,-0.3202 4.20106,0.52818 5.41964,1.71919 1.19904,1.17247 1.83362,2.73844 1.92724,4.03717 0.0955,1.32939 -0.3425,2.55279 -1.23392,3.49352 -0.28301,0.29775 -0.61647,0.57155 -0.99096,0.81441 0,0 0,0 0,0 -0.83454,0.52175 -1.90033,0.93879 -3.05376,1.04871 -1.69963,0.16242 -3.68648,-0.33091 -5.3074,-2.05912 -0.22811,-0.24321 -0.4475,-0.51086 -0.65559,-0.80309 -1.26148,-1.78833 -2.05656,-4.4816 -1.7932,-7.73777 0.30957,-3.82728 2.06872,-7.99325 5.1648,-11.35806 3.09634,-3.3651 7.07805,-5.43797 10.82773,-6.06772 3.67764,-0.61807 6.79164,0.22098 8.66694,1.63024 1.87475,1.41131 2.58159,3.32475 2.60592,5.01866 0.0235,1.66183 -0.60593,3.21734 -1.44535,4.2061 -0.86214,1.01496 -2.06344,1.59973 -3.41599,1.64622 -1.32309,0.0435 -2.94357,-0.44766 -4.21946,-1.5432 -1.29528,-1.11157 -2.2923,-2.90736 -2.17943,-5.25928 0.1125,-2.34376 1.3981,-5.24904 4.26719,-7.70034 2.88676,-2.4664 7.13163,-4.21126 11.9342,-4.3473"
       inkscape:path-effect="#path-effect81"
       transform="matrix(0.84864466,-0.22788775,0.23069024,0.80802012,-96.83872,202.82323)" /><path
       style="font-variation-settings:normal;opacity:1;vector-effect:none;fill:none;fill-opacity:1;stroke:#000000;stroke-width:3;stroke-linecap:butt;stroke-linejoin:round;stroke-miterlimit:4;stroke-dasharray:9.00001, 9.00001;stroke-dashoffset:0;stroke-opacity:1;-inkscape-stroke:none;marker-mid:url(#marker10);stop-color:#000000;stop-opacity:1"
       d="m 209.51042,494.76899 82.62343,43.26479"
       id="path82"
       inkscape:path-effect="#path-effect83"
       inkscape:original-d="m 209.51042,494.76899 c 27.86753,14.5756 55.24548,28.9202 82.62343,43.26479" /><path
       style="fill:none;stroke:#000000;stroke-width:3;stroke-linejoin:round;stroke-dasharray:none"
       id="path7"
       sodipodi:type="arc"
       sodipodi:cx="444"
       sodipodi:cy="546"
       sodipodi:rx="75"
       sodipodi:ry="75"
       sodipodi:start="1.9218086"
       sodipodi:end="3.8057851"
       sodipodi:open="true"
       sodipodi:arc-type="arc"
       d="m 418.21133,616.42698 c -3.79293,3.50931 -6.67063,3.4362 -8.95408,2.33591 -2.25229,-1.08473 -4.11139,-3.30416 -3.73667,-8.45667 0.3743,-5.14558 -0.73192,-7.17292 -2.47699,-8.47623 -1.74488,-1.30351 -4.01449,-1.78011 -8.83578,0.0707 -4.82795,1.85328 -7.48129,0.72529 -9.17905,-1.0965 -1.69843,-1.82177 -2.62365,-4.55516 -0.42212,-9.2347 2.19854,-4.67299 1.88265,-6.96738 0.71677,-8.8071 -1.16563,-1.83985 -3.11305,-3.08714 -8.27222,-3.09025 -5.15899,-0.003 -7.22384,-1.99 -8.16065,-4.34525 -0.93727,-2.35508 -0.79271,-5.23308 2.98444,-8.75904 0,0 0,0 0,0 0,0 2.2e-4,-2e-4 2.2e-4,-2e-4 3.77755,-3.52612 4.34855,-5.74446 3.96519,-7.87847 -0.38309,-2.13403 -1.70818,-4.02252 -6.47957,-5.98487 -4.77121,-1.96236 -5.92867,-4.58059 -5.9068,-7.1071 0.0211,-2.49239 1.23118,-5.11149 6.05064,-6.986 4.81313,-1.87197 6.16829,-3.7546 6.59105,-5.89612 0.42302,-2.14144 -0.13035,-4.39729 -3.88315,-7.94509 -3.75263,-3.54774 -3.89721,-6.40008 -2.97184,-8.75113 0.91157,-2.31733 2.98323,-4.33747 8.14967,-4.35712 5.15914,-0.0195 7.09179,-1.2737 8.25738,-3.10192 1.16582,-1.82804 1.46631,-4.10201 -0.7039,-8.79174"
       inkscape:path-effect="#path-effect38"
       transform="translate(0.76998089,0.07075919)" /><path
       style="font-variation-settings:normal;opacity:1;vector-effect:none;fill:none;fill-opacity:1;stroke:#000000;stroke-width:3;stroke-linecap:butt;stroke-linejoin:round;stroke-miterlimit:4;stroke-dasharray:none;stroke-dashoffset:0;stroke-opacity:1;-inkscape-stroke:none;marker-mid:url(#Triangle);stop-color:#000000;stop-opacity:1"
       d="m 432,591 c 10.93789,5.3806 21.85849,10.79634 32.76158,16.2471 11.09769,5.54805 22.17725,11.13239 33.23842,16.7529"
       id="path41"
       inkscape:path-effect="#path-effect57"
       inkscape:original-d="m 432,591 c 2.68211,6.6628 17.68211,11.4128 32.76158,16.2471 15.07947,4.8343 30.23842,9.7529 33.23842,16.7529"
       sodipodi:nodetypes="csc" /><path
       style="font-variation-settings:normal;opacity:1;vector-effect:none;fill:none;fill-opacity:1;stroke:#000000;stroke-width:3;stroke-linecap:butt;stroke-linejoin:round;stroke-miterlimit:4;stroke-dasharray:none;stroke-dashoffset:0;stroke-opacity:1;-inkscape-stroke:none;marker-mid:url(#marker10);stop-color:#000000;stop-opacity:1"
       d="m 507,588 c -12.38871,0.27597 -24.77499,0.66058 -37.15695,1.15377 -12.61951,0.50265 -25.23454,1.1181 -37.84305,1.84623"
       id="path57"
       inkscape:path-effect="#path-effect63"
       inkscape:original-d="m 507,588 c -10.43663,-1.34925 -23.73961,-0.15544 -37.15695,1.15377 -13.41733,1.30921 -26.94901,2.73383 -37.84305,1.84623"
       sodipodi:nodetypes="csc"
       transform="rotate(180,469.47346,589.33744)" /><path
       style="font-variation-settings:normal;opacity:1;vector-effect:none;fill:none;fill-opacity:1;stroke:#000000;stroke-width:3;stroke-linecap:butt;stroke-linejoin:round;stroke-miterlimit:4;stroke-dasharray:9.00001, 9.00001;stroke-dashoffset:0;stroke-opacity:1;-inkscape-stroke:none;stop-color:#000000;stop-opacity:1"
       d="m 426,534 54,-27"
       id="path63"
       inkscape:path-effect="#path-effect64"
       inkscape:original-d="m 426,534 c 20.28529,-11.99905 30.71886,-14.38974 54,-27"
       sodipodi:nodetypes="cc" /><path
       style="font-variation-settings:normal;opacity:1;vector-effect:none;fill:none;fill-opacity:1;stroke:#000000;stroke-width:3;stroke-linecap:butt;stroke-linejoin:round;stroke-miterlimit:4;stroke-dasharray:none;stroke-dashoffset:0;stroke-opacity:1;-inkscape-stroke:none;marker-mid:url(#marker10);stop-color:#000000;stop-opacity:1"
       d="m 480.01102,507.15632 c 2.48902,-6.54855 4.98581,-13.09415 7.49036,-19.63678 2.49186,-6.50946 4.9914,-13.01598 7.49862,-19.51954"
       id="path64"
       inkscape:path-effect="#path-effect65"
       inkscape:original-d="m 480.01102,507.15632 c 4.99449,-7.07816 6.24173,-13.36724 7.49036,-19.63678 1.24862,-6.26954 2.49862,-12.51954 7.49862,-19.51954"
       sodipodi:nodetypes="csc" /><path
       style="font-variation-settings:normal;opacity:1;vector-effect:none;fill:none;fill-opacity:1;stroke:#000000;stroke-width:3;stroke-linecap:butt;stroke-linejoin:round;stroke-miterlimit:4;stroke-dasharray:none;stroke-dashoffset:0;stroke-opacity:1;-inkscape-stroke:none;marker-mid:url(#Triangle);stop-color:#000000;stop-opacity:1"
       d="m 480.01102,507.15632 c 5.99046,-2.54968 11.98819,-5.08225 17.99311,-7.59768 5.99334,-2.51057 11.99383,-5.00407 18.00138,-7.48044"
       id="path66"
       inkscape:path-effect="#path-effect68"
       inkscape:original-d="m 480.01102,507.15632 c 4.99449,-7.07816 11.49311,-7.34769 17.99311,-7.59768 6.5,-0.24999 13.00138,-0.48044 18.00138,-7.48044"
       transform="matrix(1,0,0,-1,-0.0055073,1014.0782)"
       sodipodi:nodetypes="csc" /><path
       style="font-variation-settings:normal;opacity:1;vector-effect:none;fill:none;fill-opacity:1;stroke:#000000;stroke-width:3;stroke-linecap:butt;stroke-linejoin:round;stroke-miterlimit:4;stroke-dasharray:9.00001, 9.00001;stroke-dashoffset:0;stroke-opacity:1;-inkscape-stroke:none;stop-color:#000000;stop-opacity:1"
       d="m 398.70336,634.25517 39.29664,46.74483"
       id="path68"
       sodipodi:nodetypes="cc" /><path
       d="m 194.57743,486.11637 c 0,-1.872 0.072,-2.448 2.352,-2.448 v -0.72 h -6.888 v 0.72 c 2.208,0 2.328,0.576 2.328,2.448 v 9.456 c 0,2.136 -0.168,2.424 -2.328,2.424 v 0.72 h 6.888 v -0.72 c -2.16,0 -2.352,-0.312 -2.352,-2.424 v -4.488 h 7.872 v 4.488 c 0,2.088 -0.192,2.424 -2.328,2.424 v 0.72 h 6.864 v -0.72 c -2.184,0 -2.352,-0.336 -2.352,-2.424 v -9.456 c 0,-1.896 0.072,-2.448 2.352,-2.448 v -0.72 h -6.864 v 0.72 c 2.208,0 2.328,0.576 2.328,2.448 v 4.032 h -7.872 z"
       id="text68"
       style="font-size:24px;font-family:'STIX Two Math';-inkscape-font-specification:'STIX Two Math, Normal';letter-spacing:-0.26px;stroke-width:3;stroke-linejoin:round;marker-mid:url(#marker10)"
       aria-label="H" /><path
       d="m 516.557,526.48805 0.096,0.648 c 0.576,-0.096 1.272,-0.24 1.992,-0.408 -0.384,1.104 -0.672,2.16 -0.672,3.048 0,2.424 1.344,2.928 2.52,2.928 1.752,0 2.976,-1.368 4.896,-4.392 l -0.576,-0.408 c -1.8,2.616 -2.784,3.84 -3.984,3.84 -0.792,0 -1.176,-0.792 -1.176,-1.608 0,-1.224 0.432,-2.568 0.984,-3.984 3.696,-1.176 7.704,-3.36 7.704,-7.416 0,-1.44 -0.72,-2.352 -2.112,-2.352 -2.952,0 -5.592,5.064 -7.296,9.552 -0.84,0.24 -1.656,0.408 -2.376,0.552 z m 9.504,-9.024 c 0.6,0 1.128,0.36 1.128,1.512 0,3.216 -3,5.16 -6.192,6.312 l 0.6,-1.488 c 0.696,-1.752 2.52,-6.336 4.464,-6.336 z"
       id="text69"
       style="font-size:24px;font-family:'STIX Two Math';-inkscape-font-specification:'STIX Two Math, Normal';letter-spacing:-0.26px;stroke-width:3;stroke-linejoin:round;marker-mid:url(#marker10)"
       aria-label="ℓ" /><g
       transform="matrix(2.4398974,0,0,2.4398974,493.87583,444.94411)"
       ns1:version="1.11.0"
       ns1:texconverter="xelatex"
       ns1:pdfconverter="inkscape"
       ns1:text="$\\bar{\\ell}$"
       ns1:preamble="/home/pmc4/.config/inkscape/extensions/textext/stix_fonts.tex"
       ns1:scale="1.0"
       ns1:alignment="middle center"
       ns1:inkscapeversion="1.4"
       ns1:jacobian_sqrt="1.33333"
       id="g7"><defs
   id="id-348622c2-10ce-4996-97ce-b76de1b7a876" />
  <g
   fill="#000000"
   fill-opacity="1"
   id="id-cde4dbef-f8e4-4c1c-bf86-532e54228c05"
   transform="translate(-148.884,-126.794)">
    <g
   transform="translate(155.487,132.872)"
   id="g5"><path
   d="m -0.84375,-5.53125 v -0.546875 h -2.890625 v 0.546875 z m 0,0"
   id="id-8b1ef4f2-c307-4b50-b9d9-4241aef510b6" />
      </g></g>
  <g
   fill="#000000"
   fill-opacity="1"
   id="id-a9509257-978a-43c8-8847-f7222ef550ea"
   transform="translate(-148.884,-126.794)">
    <g
   transform="translate(148.712,134.765)"
   id="g6"><path
   d="m 0.171875,-2.484375 0.046875,0.265625 c 0.234375,-0.03125 0.53125,-0.09375 0.828125,-0.15625 -0.15625,0.453125 -0.28125,0.890625 -0.28125,1.265625 0,1 0.5625,1.203125 1.046875,1.203125 0.734375,0 1.234375,-0.5625 2.03125,-1.8125 l -0.234375,-0.171875 c -0.75,1.078125 -1.15625,1.59375 -1.65625,1.59375 -0.328125,0 -0.484375,-0.328125 -0.484375,-0.671875 0,-0.5 0.171875,-1.0625 0.40625,-1.65625 1.53125,-0.484375 3.203125,-1.390625 3.203125,-3.078125 0,-0.59375 -0.296875,-0.96875 -0.875,-0.96875 -1.234375,0 -2.328125,2.09375 -3.03125,3.953125 -0.359375,0.109375 -0.6875,0.171875 -1,0.234375 z m 3.953125,-3.75 c 0.25,0 0.46875,0.15625 0.46875,0.625 0,1.34375 -1.25,2.15625 -2.5625,2.625 l 0.234375,-0.609375 c 0.296875,-0.734375 1.046875,-2.640625 1.859375,-2.640625 z m 0,0"
   id="id-e1900631-2bed-4a22-a7a6-2ea90049ce3a" />
      </g></g>
</g><path
       d="m 360.96361,561.79198 -2.352,0.072 -2.424,6.864 -0.528,1.704 h -0.192 v -1.728 c -0.072,-2.088 -0.024,-6.984 -2.808,-6.984 -1.44,0 -2.28,1.224 -2.664,2.472 l 0.408,0.24 c 0.48,-0.768 0.96,-0.984 1.632,-0.984 2.28,0 2.472,5.28 2.616,8.448 -0.144,0.528 -0.336,1.08 -0.504,1.608 -0.456,1.368 -0.912,2.76 -0.888,4.056 l 1.248,0.72 h 0.528 c 0.864,-1.176 0.888,-3.624 0.912,-5.256 0,-0.384 0,-0.744 0.024,-1.008 1.608,-3.288 3.312,-6.648 4.992,-9.864 z"
       id="text7"
       style="font-size:24px;font-family:'STIX Two Math';-inkscape-font-specification:'STIX Two Math, Normal';letter-spacing:-0.26px;stroke-width:3;stroke-linejoin:round;marker-mid:url(#marker10)"
       aria-label="γ" /><path
       d="m 438.20182,688.44901 c 0,-1.872 0.072,-2.448 2.352,-2.448 v -0.72 h -6.888 v 0.72 c 2.208,0 2.328,0.576 2.328,2.448 v 9.456 c 0,2.136 -0.168,2.424 -2.328,2.424 v 0.72 h 6.888 v -0.72 c -2.16,0 -2.352,-0.312 -2.352,-2.424 v -4.488 h 7.872 v 4.488 c 0,2.088 -0.192,2.424 -2.328,2.424 v 0.72 h 6.864 v -0.72 c -2.184,0 -2.352,-0.336 -2.352,-2.424 v -9.456 c 0,-1.896 0.072,-2.448 2.352,-2.448 v -0.72 h -6.864 v 0.72 c 2.208,0 2.328,0.576 2.328,2.448 v 4.032 h -7.872 z"
       id="text8"
       style="font-size:24px;font-family:'STIX Two Math';-inkscape-font-specification:'STIX Two Math, Normal';letter-spacing:-0.26px;stroke-width:3;stroke-linejoin:round;marker-mid:url(#marker10)"
       aria-label="H" /><path
       d="m 467.17343,534.27651 c 0,-3.336 -2.28,-4.728 -6.696,-4.896 0.048,-1.488 0.312,-1.968 2.352,-1.968 v -0.72 h -6.936 v 0.72 c 2.04,0 2.352,0.456 2.376,1.968 -4.392,0.192 -6.648,1.8 -6.648,5.088 0,3.384 2.208,4.944 6.648,5.112 -0.024,1.776 -0.36,2.16 -2.376,2.16 v 0.72 h 6.936 v -0.72 c -1.992,0 -2.328,-0.408 -2.352,-2.16 4.416,-0.216 6.696,-1.824 6.696,-5.304 z m -2.448,0.048 c 0,3.216 -1.32,4.2 -4.248,4.368 v -8.424 c 2.688,0.216 4.248,1.32 4.248,4.056 z m -10.68,-0.144 c 0,-2.808 1.56,-3.744 4.224,-3.936 v 8.424 c -2.952,-0.264 -4.224,-1.584 -4.224,-4.488 z"
       id="text9"
       style="font-size:24px;font-family:'STIX Two Math';-inkscape-font-specification:'STIX Two Math, Normal';letter-spacing:-0.26px;stroke-width:3;stroke-linejoin:round;marker-mid:url(#marker10)"
       aria-label="Φ" /><path
       d="m 496.49929,630.80696 0.096,0.648 c 0.576,-0.096 1.272,-0.24 1.992,-0.408 -0.384,1.104 -0.672,2.16 -0.672,3.048 0,2.424 1.344,2.928 2.52,2.928 1.752,0 2.976,-1.368 4.896,-4.392 l -0.576,-0.408 c -1.8,2.616 -2.784,3.84 -3.984,3.84 -0.792,0 -1.176,-0.792 -1.176,-1.608 0,-1.224 0.432,-2.568 0.984,-3.984 3.696,-1.176 7.704,-3.36 7.704,-7.416 0,-1.44 -0.72,-2.352 -2.112,-2.352 -2.952,0 -5.592,5.064 -7.296,9.552 -0.84,0.24 -1.656,0.408 -2.376,0.552 z m 9.504,-9.024 c 0.6,0 1.128,0.36 1.128,1.512 0,3.216 -3,5.16 -6.192,6.312 l 0.6,-1.488 c 0.696,-1.752 2.52,-6.336 4.464,-6.336 z"
       id="text10"
       style="font-size:24px;font-family:'STIX Two Math';-inkscape-font-specification:'STIX Two Math, Normal';letter-spacing:-0.26px;stroke-width:3;stroke-linejoin:round;marker-mid:url(#marker10)"
       aria-label="ℓ" /><g
       transform="matrix(2.4398974,0,0,2.4398974,509.22776,576.72523)"
       ns1:version="1.11.0"
       ns1:texconverter="xelatex"
       ns1:pdfconverter="inkscape"
       ns1:text="$\\bar{\\ell}$"
       ns1:preamble="/home/pmc4/.config/inkscape/extensions/textext/stix_fonts.tex"
       ns1:scale="1.0"
       ns1:alignment="middle center"
       ns1:inkscapeversion="1.4"
       ns1:jacobian_sqrt="1.33333"
       id="g21"><defs
   id="defs14" />
  <g
   fill="#000000"
   fill-opacity="1"
   id="g16"
   transform="translate(-148.884,-126.794)">
    <g
   transform="translate(155.487,132.872)"
   id="g15"><path
   d="m -0.84375,-5.53125 v -0.546875 h -2.890625 v 0.546875 z m 0,0"
   id="path15" />
      </g></g>
  <g
   fill="#000000"
   fill-opacity="1"
   id="g20"
   transform="translate(-148.884,-126.794)">
    <g
   transform="translate(148.712,134.765)"
   id="g19"><path
   d="m 0.171875,-2.484375 0.046875,0.265625 c 0.234375,-0.03125 0.53125,-0.09375 0.828125,-0.15625 -0.15625,0.453125 -0.28125,0.890625 -0.28125,1.265625 0,1 0.5625,1.203125 1.046875,1.203125 0.734375,0 1.234375,-0.5625 2.03125,-1.8125 l -0.234375,-0.171875 c -0.75,1.078125 -1.15625,1.59375 -1.65625,1.59375 -0.328125,0 -0.484375,-0.328125 -0.484375,-0.671875 0,-0.5 0.171875,-1.0625 0.40625,-1.65625 1.53125,-0.484375 3.203125,-1.390625 3.203125,-3.078125 0,-0.59375 -0.296875,-0.96875 -0.875,-0.96875 -1.234375,0 -2.328125,2.09375 -3.03125,3.953125 -0.359375,0.109375 -0.6875,0.171875 -1,0.234375 z m 3.953125,-3.75 c 0.25,0 0.46875,0.15625 0.46875,0.625 0,1.34375 -1.25,2.15625 -2.5625,2.625 l 0.234375,-0.609375 c 0.296875,-0.734375 1.046875,-2.640625 1.859375,-2.640625 z m 0,0"
   id="path19" />
      </g></g>
</g><path
       d="m 260.81989,661.07961 c -1.128,0.864 -1.968,1.872 -1.968,2.736 0,0.672 0.528,1.32 1.344,1.728 v 0.096 c -1.296,1.248 -1.944,2.064 -1.944,2.856 0,1.32 0.936,2.64 4.08,2.64 3.024,0 6.576,-1.104 6.576,-4.32 0,-2.76 -2.304,-2.856 -5.328,-2.856 -2.208,0 -2.832,-0.24 -2.832,-0.96 0,-0.408 0.384,-1.272 0.624,-1.608 0.624,0.216 1.296,0.36 2.064,0.36 2.52,0 4.248,-1.416 4.248,-3.648 0,-1.2 -0.528,-1.992 -0.864,-2.472 v -0.12 l 2.256,0.072 v -1.296 l -3.096,0.168 c 0,0 -1.08,-0.6 -2.664,-0.6 -2.544,0 -4.344,1.512 -4.344,3.912 0,1.56 0.696,2.592 1.848,3.264 z m -0.024,4.656 c 0.336,0 0.792,0.024 2.712,0.048 0.072,0 0.144,0 0.216,0 1.608,0.024 3.96,0.048 3.96,1.704 0,1.032 -1.128,2.28 -3.96,2.28 -2.448,0 -3.6,-0.696 -3.6,-2.088 0,-0.504 0.168,-1.056 0.672,-1.944 z m 2.352,-11.016 c 1.536,0 2.4,1.296 2.4,3.24 0,2.28 -0.888,2.952 -2.088,2.952 -1.56,0 -2.376,-1.176 -2.376,-3.24 0,-2.016 0.816,-2.952 2.064,-2.952 z"
       id="text21"
       style="font-size:24px;font-family:'STIX Two Math';-inkscape-font-specification:'STIX Two Math, Normal';letter-spacing:-0.26px;stroke-width:3;stroke-linejoin:round;marker-mid:url(#marker10)"
       aria-label="g" /></g><metadata
     id="metadata1"><rdf:RDF><cc:Work
         rdf:about="" /></rdf:RDF></metadata></svg>
